<?xml version="1.0" encoding="UTF-8" standalone="no"?>
<!DOCTYPE svg PUBLIC "-//W3C//DTD SVG 1.1//EN" "http://www.w3.org/Graphics/SVG/1.1/DTD/svg11.dtd">
<svg width="100%" height="100%" viewBox="0 0 778 633" version="1.1" xmlns="http://www.w3.org/2000/svg" xmlns:xlink="http://www.w3.org/1999/xlink" xml:space="preserve" xmlns:serif="http://www.serif.com/" style="fill-rule:evenodd;clip-rule:evenodd;stroke-linecap:round;stroke-linejoin:round;">
    <g id="Down">
    </g>
    <g id="Up">
        <path d="M399.969,407.906L422.646,407.906C422.802,407.906 422.929,407.778 422.929,407.622L422.929,399.402C422.929,399.118 422.646,399.402 422.929,399.402L439.37,399.402C439.654,399.402 439.37,399.118 439.37,399.402L439.37,407.622C439.37,407.778 439.498,407.906 439.654,407.906L456.661,407.906C456.817,407.906 456.945,407.778 456.945,407.622L456.945,399.402C456.945,399.118 456.661,399.402 456.945,399.402L473.386,399.402C473.669,399.402 473.386,399.118 473.386,399.402L473.386,407.622C473.386,407.778 473.513,407.906 473.669,407.906L490.677,407.906C490.833,407.906 490.961,407.778 490.961,407.622L490.961,399.402C490.961,399.118 490.677,399.402 490.961,399.402L507.402,399.402C507.685,399.402 507.402,399.118 507.402,399.402L507.402,407.622C507.402,407.778 507.529,407.906 507.685,407.906L524.693,407.906C524.849,407.906 524.976,407.778 524.976,407.622L524.976,399.402C524.976,399.118 524.693,399.402 524.976,399.402L541.417,399.402C541.701,399.402 541.417,399.118 541.417,399.402L541.417,407.622C541.417,407.778 541.545,407.906 541.701,407.906L558.709,407.906C558.865,407.906 558.992,407.778 558.992,407.622L558.992,399.402C558.992,399.118 558.709,399.402 558.992,399.402L575.433,399.402C575.717,399.402 575.433,399.118 575.433,399.402L575.433,407.622C575.433,407.778 575.561,407.906 575.717,407.906L598.394,407.906C598.55,407.906 598.677,407.778 598.677,407.622L598.677,371.055C598.677,370.772 598.394,371.055 598.677,371.055L606.898,371.055C607.054,371.055 607.181,370.928 607.181,370.772L607.181,353.764C607.181,353.608 607.054,353.48 606.898,353.48L598.677,353.48C598.394,353.48 598.677,353.764 598.677,353.48L598.677,337.039C598.677,336.756 598.394,337.039 598.677,337.039L606.898,337.039C607.054,337.039 607.181,336.912 607.181,336.756L607.181,319.748C607.181,319.592 607.054,319.465 606.898,319.465L598.677,319.465C598.394,319.465 598.677,319.748 598.677,319.465L598.677,303.024C598.677,302.74 598.394,303.024 598.677,303.024L606.898,303.024C607.054,303.024 607.181,302.896 607.181,302.74L607.181,285.732C607.181,285.576 607.054,285.449 606.898,285.449L598.677,285.449C598.394,285.449 598.677,285.732 598.677,285.449L598.677,248.882C598.677,248.726 598.55,248.598 598.394,248.598L575.717,248.598C575.561,248.598 575.433,248.726 575.433,248.882L575.433,257.102C575.433,257.386 575.717,257.102 575.433,257.102L558.992,257.102C558.709,257.102 558.992,257.386 558.992,257.102L558.992,248.882C558.992,248.726 558.865,248.598 558.709,248.598L541.701,248.598C541.545,248.598 541.417,248.726 541.417,248.882L541.417,257.102C541.417,257.386 541.701,257.102 541.417,257.102L524.976,257.102C524.693,257.102 524.976,257.386 524.976,257.102L524.976,248.882C524.976,248.726 524.849,248.598 524.693,248.598L507.685,248.598C507.529,248.598 507.402,248.726 507.402,248.882L507.402,257.102C507.402,257.386 507.685,257.102 507.402,257.102L490.961,257.102C490.677,257.102 490.961,257.386 490.961,257.102L490.961,248.882C490.961,248.726 490.833,248.598 490.677,248.598L473.669,248.598C473.513,248.598 473.386,248.726 473.386,248.882L473.386,257.102C473.386,257.386 473.669,257.102 473.386,257.102L456.945,257.102C456.661,257.102 456.945,257.386 456.945,257.102L456.945,248.882C456.945,248.726 456.817,248.598 456.661,248.598L439.654,248.598C439.498,248.598 439.37,248.726 439.37,248.882L439.37,257.102C439.37,257.386 439.654,257.102 439.37,257.102L422.929,257.102C422.646,257.102 422.929,257.386 422.929,257.102L422.929,248.882C422.929,248.726 422.802,248.598 422.646,248.598L399.969,248.598C399.813,248.598 399.685,248.726 399.685,248.882L399.685,285.449C399.685,285.732 399.969,285.449 399.685,285.449L391.465,285.449C391.309,285.449 391.181,285.576 391.181,285.732L391.181,302.74C391.181,302.896 391.309,303.024 391.465,303.024L399.685,303.024C399.969,303.024 399.685,302.74 399.685,303.024L399.685,319.465C399.685,319.748 399.969,319.465 399.685,319.465L391.465,319.465C391.309,319.465 391.181,319.592 391.181,319.748L391.181,336.756C391.181,336.912 391.309,337.039 391.465,337.039L399.685,337.039C399.969,337.039 399.685,336.756 399.685,337.039L399.685,353.48C399.685,353.764 399.969,353.48 399.685,353.48L391.465,353.48C391.309,353.48 391.181,353.608 391.181,353.764L391.181,370.772C391.181,370.928 391.309,371.055 391.465,371.055L399.685,371.055C399.969,371.055 399.685,370.772 399.685,371.055L399.685,407.622C399.685,407.778 399.813,407.906 399.969,407.906" style="fill:none;fill-rule:nonzero;stroke:black;stroke-width:0.57px;"/>
        <g transform="matrix(4.43246e-18,0.0723875,-0.144775,8.86491e-18,518.254,307.965)">
            <rect x="221.522" y="73" width="117.478" height="117.478" style="fill:none;stroke:black;stroke-width:5.24px;stroke-miterlimit:1.5;"/>
        </g>
    </g>
    <g id="Right">
        <path d="M37.984,571.465L63.496,571.465C63.652,571.465 63.78,571.337 63.78,571.181L63.78,562.961C63.78,562.677 63.496,562.961 63.78,562.961L80.22,562.961C80.504,562.961 80.22,562.677 80.22,562.961L80.22,571.181C80.22,571.337 80.348,571.465 80.504,571.465L97.512,571.465C97.668,571.465 97.795,571.337 97.795,571.181L97.795,562.961C97.795,562.677 97.512,562.961 97.795,562.961L114.236,562.961C114.52,562.961 114.236,562.677 114.236,562.961L114.236,571.181C114.236,571.337 114.364,571.465 114.52,571.465L131.528,571.465C131.683,571.465 131.811,571.337 131.811,571.181L131.811,562.961C131.811,562.677 131.528,562.961 131.811,562.961L148.252,562.961C148.535,562.961 148.252,562.677 148.252,562.961L148.252,571.181C148.252,571.337 148.38,571.465 148.535,571.465L165.543,571.465C165.699,571.465 165.827,571.337 165.827,571.181L165.827,562.961C165.827,562.677 165.543,562.961 165.827,562.961L182.268,562.961C182.551,562.961 182.268,562.677 182.268,562.961L182.268,571.181C182.268,571.337 182.395,571.465 182.551,571.465L199.559,571.465C199.715,571.465 199.843,571.337 199.843,571.181L199.843,562.961C199.843,562.677 199.559,562.961 199.843,562.961L216.283,562.961C216.567,562.961 216.283,562.677 216.283,562.961L216.283,571.181C216.283,571.337 216.411,571.465 216.567,571.465L233.575,571.465C233.731,571.465 233.858,571.337 233.858,571.181L233.858,562.961C233.858,562.677 233.575,562.961 233.858,562.961L250.299,562.961C250.583,562.961 250.299,562.677 250.299,562.961L250.299,571.181C250.299,571.337 250.427,571.465 250.583,571.465L267.591,571.465C267.746,571.465 267.874,571.337 267.874,571.181L267.874,562.961C267.874,562.677 267.591,562.961 267.874,562.961L284.315,562.961C284.598,562.961 284.315,562.677 284.315,562.961L284.315,571.181C284.315,571.337 284.443,571.465 284.598,571.465L301.606,571.465C301.762,571.465 301.89,571.337 301.89,571.181L301.89,562.961C301.89,562.677 301.606,562.961 301.89,562.961L318.331,562.961C318.614,562.961 318.331,562.677 318.331,562.961L318.331,571.181C318.331,571.337 318.458,571.465 318.614,571.465L335.622,571.465C335.778,571.465 335.906,571.337 335.906,571.181L335.906,562.961C335.906,562.677 335.622,562.961 335.906,562.961L352.346,562.961C352.63,562.961 352.346,562.677 352.346,562.961L352.346,571.181C352.346,571.337 352.474,571.465 352.63,571.465L386.646,571.465C386.802,571.465 386.929,571.337 386.929,571.181L386.929,534.331C386.929,534.175 386.802,534.047 386.646,534.047L378.425,534.047C378.142,534.047 378.425,534.331 378.425,534.047L378.425,517.606C378.425,517.323 378.142,517.606 378.425,517.606L386.646,517.606C386.802,517.606 386.929,517.479 386.929,517.323L386.929,500.315C386.929,500.159 386.802,500.031 386.646,500.031L378.425,500.031C378.142,500.031 378.425,500.315 378.425,500.031L378.425,483.591C378.425,483.307 378.142,483.591 378.425,483.591L386.646,483.591C386.802,483.591 386.929,483.463 386.929,483.307L386.929,466.299C386.929,466.143 386.802,466.016 386.646,466.016L378.425,466.016C378.142,466.016 378.425,466.299 378.425,466.016L378.425,449.575C378.425,449.291 378.142,449.575 378.425,449.575L386.646,449.575C386.802,449.575 386.929,449.447 386.929,449.291L386.929,412.441C386.929,412.285 386.802,412.157 386.646,412.157L352.63,412.157C352.474,412.157 352.346,412.285 352.346,412.441L352.346,420.661C352.346,420.945 352.63,420.661 352.346,420.661L335.906,420.661C335.622,420.661 335.906,420.945 335.906,420.661L335.906,412.441C335.906,412.285 335.778,412.157 335.622,412.157L318.614,412.157C318.458,412.157 318.331,412.285 318.331,412.441L318.331,420.661C318.331,420.945 318.614,420.661 318.331,420.661L301.89,420.661C301.606,420.661 301.89,420.945 301.89,420.661L301.89,412.441C301.89,412.285 301.762,412.157 301.606,412.157L284.598,412.157C284.443,412.157 284.315,412.285 284.315,412.441L284.315,420.661C284.315,420.945 284.598,420.661 284.315,420.661L267.874,420.661C267.591,420.661 267.874,420.945 267.874,420.661L267.874,412.441C267.874,412.285 267.746,412.157 267.591,412.157L250.583,412.157C250.427,412.157 250.299,412.285 250.299,412.441L250.299,420.661C250.299,420.945 250.583,420.661 250.299,420.661L233.858,420.661C233.575,420.661 233.858,420.945 233.858,420.661L233.858,412.441C233.858,412.285 233.731,412.157 233.575,412.157L216.567,412.157C216.411,412.157 216.283,412.285 216.283,412.441L216.283,420.661C216.283,420.945 216.567,420.661 216.283,420.661L199.843,420.661C199.559,420.661 199.843,420.945 199.843,420.661L199.843,412.441C199.843,412.285 199.715,412.157 199.559,412.157L182.551,412.157C182.395,412.157 182.268,412.285 182.268,412.441L182.268,420.661C182.268,420.945 182.551,420.661 182.268,420.661L165.827,420.661C165.543,420.661 165.827,420.945 165.827,420.661L165.827,412.441C165.827,412.285 165.699,412.157 165.543,412.157L148.535,412.157C148.38,412.157 148.252,412.285 148.252,412.441L148.252,420.661C148.252,420.945 148.535,420.661 148.252,420.661L131.811,420.661C131.528,420.661 131.811,420.945 131.811,420.661L131.811,412.441C131.811,412.285 131.683,412.157 131.528,412.157L114.52,412.157C114.364,412.157 114.236,412.285 114.236,412.441L114.236,420.661C114.236,420.945 114.52,420.661 114.236,420.661L97.795,420.661C97.512,420.661 97.795,420.945 97.795,420.661L97.795,412.441C97.795,412.285 97.668,412.157 97.512,412.157L80.504,412.157C80.348,412.157 80.22,412.285 80.22,412.441L80.22,420.661C80.22,420.945 80.504,420.661 80.22,420.661L63.78,420.661C63.496,420.661 63.78,420.945 63.78,420.661L63.78,412.441C63.78,412.285 63.652,412.157 63.496,412.157L29.48,412.157C29.324,412.157 29.197,412.285 29.197,412.441L29.197,449.291C29.197,449.447 29.324,449.575 29.48,449.575L37.701,449.575C37.984,449.575 37.701,449.291 37.701,449.575L37.701,466.016C37.701,466.299 37.984,466.016 37.701,466.016L29.48,466.016C29.324,466.016 29.197,466.143 29.197,466.299L29.197,483.307C29.197,483.463 29.324,483.591 29.48,483.591L37.701,483.591C37.984,483.591 37.701,483.307 37.701,483.591L37.701,500.031C37.701,500.315 37.984,500.031 37.701,500.031L29.48,500.031C29.324,500.031 29.197,500.159 29.197,500.315L29.197,517.323C29.197,517.479 29.324,517.606 29.48,517.606L37.701,517.606C37.984,517.606 37.701,517.323 37.701,517.606L37.701,534.047C37.701,534.331 37.984,534.047 37.701,534.047L29.48,534.047C29.324,534.047 29.197,534.175 29.197,534.331L29.197,571.181C29.197,571.337 29.324,571.465 29.48,571.465L37.984,571.465" style="fill:none;fill-rule:nonzero;stroke:black;stroke-width:0.57px;"/>
        <g transform="matrix(1,0,0,1,1.56299,-4.70696)">
            <g transform="matrix(0.448722,0.448722,-0.448722,0.448722,257.632,263.281)">
                <path d="M95.368,314.087C95.368,310.175 92.193,307 88.282,307C84.371,307 81.195,310.175 81.195,314.087L81.195,548.913C81.195,552.825 84.371,556 88.282,556C92.193,556 95.368,552.825 95.368,548.913L95.368,314.087Z" style="fill:none;stroke:black;stroke-width:0.95px;stroke-miterlimit:1.5;"/>
            </g>
            <g transform="matrix(0.448722,0.448722,-0.448722,0.448722,326.217,263.281)">
                <path d="M95.368,314.087C95.368,310.175 92.193,307 88.282,307C84.371,307 81.195,310.175 81.195,314.087L81.195,548.913C81.195,552.825 84.371,556 88.282,556C92.193,556 95.368,552.825 95.368,548.913L95.368,314.087Z" style="fill:none;stroke:black;stroke-width:0.95px;stroke-miterlimit:1.5;"/>
            </g>
            <g transform="matrix(0.448722,0.448722,-0.448722,0.448722,394.802,263.281)">
                <path d="M95.368,314.087C95.368,310.175 92.193,307 88.282,307C84.371,307 81.195,310.175 81.195,314.087L81.195,548.913C81.195,552.825 84.371,556 88.282,556C92.193,556 95.368,552.825 95.368,548.913L95.368,314.087Z" style="fill:none;stroke:black;stroke-width:0.95px;stroke-miterlimit:1.5;"/>
            </g>
            <g transform="matrix(0.448722,0.448722,-0.448722,0.448722,463.387,263.281)">
                <path d="M95.368,314.087C95.368,310.175 92.193,307 88.282,307C84.371,307 81.195,310.175 81.195,314.087L81.195,548.913C81.195,552.825 84.371,556 88.282,556C92.193,556 95.368,552.825 95.368,548.913L95.368,314.087Z" style="fill:none;stroke:black;stroke-width:0.95px;stroke-miterlimit:1.5;"/>
            </g>
        </g>
    </g>
    <g id="Left">
        <path d="M37.984,407.906L63.496,407.906C63.652,407.906 63.78,407.778 63.78,407.622L63.78,399.402C63.78,399.118 63.496,399.402 63.78,399.402L80.22,399.402C80.504,399.402 80.22,399.118 80.22,399.402L80.22,407.622C80.22,407.778 80.348,407.906 80.504,407.906L97.512,407.906C97.668,407.906 97.795,407.778 97.795,407.622L97.795,399.402C97.795,399.118 97.512,399.402 97.795,399.402L114.236,399.402C114.52,399.402 114.236,399.118 114.236,399.402L114.236,407.622C114.236,407.778 114.364,407.906 114.52,407.906L131.528,407.906C131.683,407.906 131.811,407.778 131.811,407.622L131.811,399.402C131.811,399.118 131.528,399.402 131.811,399.402L148.252,399.402C148.535,399.402 148.252,399.118 148.252,399.402L148.252,407.622C148.252,407.778 148.38,407.906 148.535,407.906L165.543,407.906C165.699,407.906 165.827,407.778 165.827,407.622L165.827,399.402C165.827,399.118 165.543,399.402 165.827,399.402L182.268,399.402C182.551,399.402 182.268,399.118 182.268,399.402L182.268,407.622C182.268,407.778 182.395,407.906 182.551,407.906L199.559,407.906C199.715,407.906 199.843,407.778 199.843,407.622L199.843,399.402C199.843,399.118 199.559,399.402 199.843,399.402L216.283,399.402C216.567,399.402 216.283,399.118 216.283,399.402L216.283,407.622C216.283,407.778 216.411,407.906 216.567,407.906L233.575,407.906C233.731,407.906 233.858,407.778 233.858,407.622L233.858,399.402C233.858,399.118 233.575,399.402 233.858,399.402L250.299,399.402C250.583,399.402 250.299,399.118 250.299,399.402L250.299,407.622C250.299,407.778 250.427,407.906 250.583,407.906L267.591,407.906C267.746,407.906 267.874,407.778 267.874,407.622L267.874,399.402C267.874,399.118 267.591,399.402 267.874,399.402L284.315,399.402C284.598,399.402 284.315,399.118 284.315,399.402L284.315,407.622C284.315,407.778 284.443,407.906 284.598,407.906L301.606,407.906C301.762,407.906 301.89,407.778 301.89,407.622L301.89,399.402C301.89,399.118 301.606,399.402 301.89,399.402L318.331,399.402C318.614,399.402 318.331,399.118 318.331,399.402L318.331,407.622C318.331,407.778 318.458,407.906 318.614,407.906L335.622,407.906C335.778,407.906 335.906,407.778 335.906,407.622L335.906,399.402C335.906,399.118 335.622,399.402 335.906,399.402L352.346,399.402C352.63,399.402 352.346,399.118 352.346,399.402L352.346,407.622C352.346,407.778 352.474,407.906 352.63,407.906L386.646,407.906C386.802,407.906 386.929,407.778 386.929,407.622L386.929,370.772C386.929,370.616 386.802,370.488 386.646,370.488L378.425,370.488C378.142,370.488 378.425,370.772 378.425,370.488L378.425,354.047C378.425,353.764 378.142,354.047 378.425,354.047L386.646,354.047C386.802,354.047 386.929,353.92 386.929,353.764L386.929,336.756C386.929,336.6 386.802,336.472 386.646,336.472L378.425,336.472C378.142,336.472 378.425,336.756 378.425,336.472L378.425,320.031C378.425,319.748 378.142,320.031 378.425,320.031L386.646,320.031C386.802,320.031 386.929,319.904 386.929,319.748L386.929,302.74C386.929,302.584 386.802,302.457 386.646,302.457L378.425,302.457C378.142,302.457 378.425,302.74 378.425,302.457L378.425,286.016C378.425,285.732 378.142,286.016 378.425,286.016L386.646,286.016C386.802,286.016 386.929,285.888 386.929,285.732L386.929,248.882C386.929,248.726 386.802,248.598 386.646,248.598L352.63,248.598C352.474,248.598 352.346,248.726 352.346,248.882L352.346,257.102C352.346,257.386 352.63,257.102 352.346,257.102L335.906,257.102C335.622,257.102 335.906,257.386 335.906,257.102L335.906,248.882C335.906,248.726 335.778,248.598 335.622,248.598L318.614,248.598C318.458,248.598 318.331,248.726 318.331,248.882L318.331,257.102C318.331,257.386 318.614,257.102 318.331,257.102L301.89,257.102C301.606,257.102 301.89,257.386 301.89,257.102L301.89,248.882C301.89,248.726 301.762,248.598 301.606,248.598L284.598,248.598C284.443,248.598 284.315,248.726 284.315,248.882L284.315,257.102C284.315,257.386 284.598,257.102 284.315,257.102L267.874,257.102C267.591,257.102 267.874,257.386 267.874,257.102L267.874,248.882C267.874,248.726 267.746,248.598 267.591,248.598L250.583,248.598C250.427,248.598 250.299,248.726 250.299,248.882L250.299,257.102C250.299,257.386 250.583,257.102 250.299,257.102L233.858,257.102C233.575,257.102 233.858,257.386 233.858,257.102L233.858,248.882C233.858,248.726 233.731,248.598 233.575,248.598L216.567,248.598C216.411,248.598 216.283,248.726 216.283,248.882L216.283,257.102C216.283,257.386 216.567,257.102 216.283,257.102L199.843,257.102C199.559,257.102 199.843,257.386 199.843,257.102L199.843,248.882C199.843,248.726 199.715,248.598 199.559,248.598L182.551,248.598C182.395,248.598 182.268,248.726 182.268,248.882L182.268,257.102C182.268,257.386 182.551,257.102 182.268,257.102L165.827,257.102C165.543,257.102 165.827,257.386 165.827,257.102L165.827,248.882C165.827,248.726 165.699,248.598 165.543,248.598L148.535,248.598C148.38,248.598 148.252,248.726 148.252,248.882L148.252,257.102C148.252,257.386 148.535,257.102 148.252,257.102L131.811,257.102C131.528,257.102 131.811,257.386 131.811,257.102L131.811,248.882C131.811,248.726 131.683,248.598 131.528,248.598L114.52,248.598C114.364,248.598 114.236,248.726 114.236,248.882L114.236,257.102C114.236,257.386 114.52,257.102 114.236,257.102L97.795,257.102C97.512,257.102 97.795,257.386 97.795,257.102L97.795,248.882C97.795,248.726 97.668,248.598 97.512,248.598L80.504,248.598C80.348,248.598 80.22,248.726 80.22,248.882L80.22,257.102C80.22,257.386 80.504,257.102 80.22,257.102L63.78,257.102C63.496,257.102 63.78,257.386 63.78,257.102L63.78,248.882C63.78,248.726 63.652,248.598 63.496,248.598L29.48,248.598C29.324,248.598 29.197,248.726 29.197,248.882L29.197,285.732C29.197,285.888 29.324,286.016 29.48,286.016L37.701,286.016C37.984,286.016 37.701,285.732 37.701,286.016L37.701,302.457C37.701,302.74 37.984,302.457 37.701,302.457L29.48,302.457C29.324,302.457 29.197,302.584 29.197,302.74L29.197,319.748C29.197,319.904 29.324,320.031 29.48,320.031L37.701,320.031C37.984,320.031 37.701,319.748 37.701,320.031L37.701,336.472C37.701,336.756 37.984,336.472 37.701,336.472L29.48,336.472C29.324,336.472 29.197,336.6 29.197,336.756L29.197,353.764C29.197,353.92 29.324,354.047 29.48,354.047L37.701,354.047C37.984,354.047 37.701,353.764 37.701,354.047L37.701,370.488C37.701,370.772 37.984,370.488 37.701,370.488L29.48,370.488C29.324,370.488 29.197,370.616 29.197,370.772L29.197,407.622C29.197,407.778 29.324,407.906 29.48,407.906L37.984,407.906" style="fill:none;fill-rule:nonzero;stroke:black;stroke-width:0.57px;"/>
        <g transform="matrix(0.614319,0,0,0.147844,84.5576,277.53)">
            <rect x="37" y="86" width="323" height="38.346" style="fill:none;stroke:black;stroke-width:1.34px;stroke-miterlimit:1.5;"/>
        </g>
        <g transform="matrix(1,0,0,1,22.5744,-170.187)">
            <g>
                <g transform="matrix(0.448722,0.448722,-0.279955,0.279955,369.553,357.115)">
                    <path d="M95.368,318.359C95.368,312.09 92.193,307 88.282,307C84.371,307 81.195,312.09 81.195,318.359L81.195,544.641C81.195,550.91 84.371,556 88.282,556C92.193,556 95.368,550.91 95.368,544.641L95.368,318.359Z" style="fill:none;stroke:black;stroke-width:1.13px;stroke-miterlimit:1.5;"/>
                </g>
                <g transform="matrix(0.448722,0.448722,-0.279955,0.279955,163.798,357.115)">
                    <path d="M95.368,318.359C95.368,312.09 92.193,307 88.282,307C84.371,307 81.195,312.09 81.195,318.359L81.195,544.641C81.195,550.91 84.371,556 88.282,556C92.193,556 95.368,550.91 95.368,544.641L95.368,318.359Z" style="fill:none;stroke:black;stroke-width:1.13px;stroke-miterlimit:1.5;"/>
                </g>
                <g transform="matrix(0.448722,0.448722,-0.279955,0.279955,232.383,357.115)">
                    <path d="M95.368,318.359C95.368,312.09 92.193,307 88.282,307C84.371,307 81.195,312.09 81.195,318.359L81.195,544.641C81.195,550.91 84.371,556 88.282,556C92.193,556 95.368,550.91 95.368,544.641L95.368,318.359Z" style="fill:none;stroke:black;stroke-width:1.13px;stroke-miterlimit:1.5;"/>
                </g>
                <g transform="matrix(0.448722,0.448722,-0.279955,0.279955,300.968,357.115)">
                    <path d="M95.368,318.359C95.368,312.09 92.193,307 88.282,307C84.371,307 81.195,312.09 81.195,318.359L81.195,544.641C81.195,550.91 84.371,556 88.282,556C92.193,556 95.368,550.91 95.368,544.641L95.368,318.359Z" style="fill:none;stroke:black;stroke-width:1.13px;stroke-miterlimit:1.5;"/>
                </g>
            </g>
        </g>
        <path d="M399.685,412.441C399.685,412.285 399.813,412.157 399.969,412.157L422.646,412.157C422.802,412.157 422.929,412.285 422.929,412.441L422.929,420.661C422.646,420.661 422.929,420.945 422.929,420.661L439.37,420.661L439.37,412.441C439.37,412.285 439.498,412.157 439.654,412.157L456.661,412.157C456.817,412.157 456.945,412.285 456.945,412.441L456.945,420.661C456.661,420.661 456.945,420.945 456.945,420.661L473.386,420.661L473.386,412.441C473.386,412.285 473.513,412.157 473.669,412.157L490.677,412.157C490.833,412.157 490.961,412.285 490.961,412.441L490.961,420.661C490.677,420.661 490.961,420.945 490.961,420.661L507.402,420.661L507.402,412.441C507.402,412.285 507.529,412.157 507.685,412.157L524.693,412.157C524.849,412.157 524.976,412.285 524.976,412.441L524.976,420.661C524.693,420.661 524.976,420.945 524.976,420.661L541.417,420.661L541.417,412.441C541.417,412.285 541.545,412.157 541.701,412.157L558.709,412.157C558.865,412.157 558.992,412.285 558.992,412.441L558.992,420.661C558.709,420.661 558.992,420.945 558.992,420.661L575.433,420.661L575.433,412.441C575.433,412.285 575.561,412.157 575.717,412.157L598.394,412.157C598.55,412.157 598.677,412.285 598.677,412.441L598.677,449.008C598.394,449.008 598.677,449.291 598.677,449.008L606.898,449.008C607.054,449.008 607.181,449.135 607.181,449.291L607.181,466.299C607.181,466.455 607.054,466.583 606.898,466.583L598.677,466.583L598.677,483.024C598.394,483.024 598.677,483.307 598.677,483.024L606.898,483.024C607.054,483.024 607.181,483.151 607.181,483.307L607.181,500.315C607.181,500.471 607.054,500.598 606.898,500.598L598.677,500.598L598.677,517.039C598.394,517.039 598.677,517.323 598.677,517.039L606.898,517.039C607.054,517.039 607.181,517.167 607.181,517.323L607.181,534.331C607.181,534.487 607.054,534.614 606.898,534.614L598.677,534.614L598.677,571.181C598.677,571.337 598.55,571.465 598.394,571.465L575.717,571.465C575.561,571.465 575.433,571.337 575.433,571.181L575.433,562.961L575.446,562.96C575.704,562.952 575.442,562.69 575.433,562.948L575.433,562.961L558.992,562.961L558.992,571.181C558.992,571.337 558.865,571.465 558.709,571.465L541.701,571.465C541.545,571.465 541.417,571.337 541.417,571.181L541.417,562.961L541.43,562.96C541.688,562.952 541.426,562.69 541.418,562.948L541.417,562.961L524.976,562.961L524.976,571.181C524.976,571.337 524.849,571.465 524.693,571.465L507.685,571.465C507.529,571.465 507.402,571.337 507.402,571.181L507.402,562.961L507.414,562.96C507.672,562.952 507.41,562.69 507.402,562.948L507.402,562.961L507.234,562.961C507.217,558.008 503.615,553.993 499.181,553.993C494.747,553.993 491.145,558.008 491.128,562.961L490.961,562.961L490.961,571.181C490.961,571.337 490.833,571.465 490.677,571.465L473.669,571.465C473.513,571.465 473.386,571.337 473.386,571.181L473.386,562.961L473.399,562.96C473.656,562.952 473.394,562.69 473.386,562.948L473.386,562.961L456.945,562.961L456.945,571.181C456.945,571.337 456.817,571.465 456.661,571.465L439.654,571.465C439.498,571.465 439.37,571.337 439.37,571.181L439.37,562.961L439.383,562.96C439.641,562.952 439.379,562.69 439.37,562.948L439.37,562.961L422.929,562.961L422.929,571.181C422.929,571.337 422.802,571.465 422.646,571.465L399.969,571.465C399.813,571.465 399.685,571.337 399.685,571.181L399.685,534.614L399.698,534.614C399.956,534.606 399.694,534.344 399.685,534.601L399.685,534.614L391.465,534.614C391.309,534.614 391.181,534.487 391.181,534.331L391.181,517.323C391.181,517.167 391.309,517.039 391.465,517.039L399.685,517.039L399.685,500.598L399.698,500.598C399.956,500.59 399.694,500.328 399.685,500.586L399.685,500.598L391.465,500.598C391.309,500.598 391.181,500.471 391.181,500.315L391.181,483.307C391.181,483.151 391.309,483.024 391.465,483.024L399.685,483.024L399.685,466.583L399.698,466.582C399.956,466.574 399.694,466.312 399.685,466.57L399.685,466.583L391.465,466.583C391.309,466.583 391.181,466.455 391.181,466.299L391.181,449.291C391.181,449.135 391.309,449.008 391.465,449.008L399.685,449.008L399.685,412.441ZM422.863,562.835C422.801,562.839 422.743,562.961 422.929,562.961L422.929,562.948C422.926,562.865 422.897,562.836 422.868,562.835L422.863,562.835ZM456.879,562.835C456.817,562.839 456.759,562.961 456.945,562.961L456.945,562.948C456.942,562.865 456.913,562.836 456.883,562.835L456.879,562.835ZM490.895,562.835C490.833,562.839 490.775,562.961 490.961,562.961L490.96,562.948C490.958,562.865 490.929,562.836 490.899,562.835L490.895,562.835ZM524.91,562.835C524.848,562.839 524.79,562.961 524.976,562.961L524.976,562.948C524.973,562.865 524.944,562.836 524.915,562.835L524.91,562.835ZM558.926,562.835C558.864,562.839 558.806,562.961 558.992,562.961L558.992,562.948C558.989,562.865 558.96,562.836 558.931,562.835L558.926,562.835ZM598.611,534.488C598.549,534.492 598.491,534.614 598.677,534.614L598.677,534.601C598.674,534.518 598.645,534.489 598.616,534.488L598.611,534.488ZM399.685,517.052C399.694,517.31 399.956,517.048 399.698,517.04L399.685,517.039L399.685,517.052ZM598.611,500.473C598.549,500.476 598.491,500.598 598.677,500.598L598.677,500.586C598.674,500.502 598.645,500.473 598.616,500.472L598.611,500.473ZM399.685,483.036C399.694,483.294 399.956,483.032 399.698,483.024L399.685,483.024L399.685,483.036ZM598.611,466.457C598.549,466.461 598.491,466.583 598.677,466.583L598.677,466.57C598.674,466.487 598.645,466.458 598.616,466.457L598.611,466.457ZM399.685,449.021C399.694,449.278 399.956,449.016 399.698,449.008L399.685,449.008L399.685,449.021ZM541.418,420.674C541.426,420.932 541.688,420.67 541.43,420.662L541.417,420.661L541.418,420.674ZM507.402,420.674C507.41,420.932 507.672,420.67 507.414,420.662L507.402,420.661L507.402,420.674ZM473.386,420.674C473.394,420.932 473.656,420.67 473.399,420.662L473.386,420.661L473.386,420.674ZM439.37,420.674C439.379,420.932 439.641,420.67 439.383,420.662L439.37,420.661L439.37,420.674ZM575.433,420.674C575.442,420.932 575.704,420.67 575.446,420.662L575.433,420.661L575.433,420.674Z" style="fill:none;fill-rule:nonzero;stroke:black;stroke-width:0.57px;"/>
    </g>
    <g id="Front">
        <g transform="matrix(1,0,0,1,-1.56299,0)">
            <path d="M37.984,235.843L63.213,235.843C63.496,235.843 63.213,235.559 63.213,235.843L63.213,244.063C63.213,244.219 63.34,244.346 63.496,244.346L80.504,244.346C80.66,244.346 80.787,244.219 80.787,244.063L80.787,235.843C80.787,235.559 80.504,235.843 80.787,235.843L97.228,235.843C97.512,235.843 97.228,235.559 97.228,235.843L97.228,244.063C97.228,244.219 97.356,244.346 97.512,244.346L114.52,244.346C114.676,244.346 114.803,244.219 114.803,244.063L114.803,235.843C114.803,235.559 114.52,235.843 114.803,235.843L131.244,235.843C131.528,235.843 131.244,235.559 131.244,235.843L131.244,244.063C131.244,244.219 131.372,244.346 131.528,244.346L148.535,244.346C148.691,244.346 148.819,244.219 148.819,244.063L148.819,235.843C148.819,235.559 148.535,235.843 148.819,235.843L165.26,235.843C165.543,235.843 165.26,235.559 165.26,235.843L165.26,244.063C165.26,244.219 165.387,244.346 165.543,244.346L182.551,244.346C182.707,244.346 182.835,244.219 182.835,244.063L182.835,235.843C182.835,235.559 182.551,235.843 182.835,235.843L199.276,235.843C199.559,235.843 199.276,235.559 199.276,235.843L199.276,244.063C199.276,244.219 199.403,244.346 199.559,244.346L216.567,244.346C216.723,244.346 216.85,244.219 216.85,244.063L216.85,235.843C216.85,235.559 216.567,235.843 216.85,235.843L233.291,235.843C233.575,235.843 233.291,235.559 233.291,235.843L233.291,244.063C233.291,244.219 233.419,244.346 233.575,244.346L250.583,244.346C250.739,244.346 250.866,244.219 250.866,244.063L250.866,235.843C250.866,235.559 250.583,235.843 250.866,235.843L267.307,235.843C267.591,235.843 267.307,235.559 267.307,235.843L267.307,244.063C267.307,244.219 267.435,244.346 267.591,244.346L284.598,244.346C284.754,244.346 284.882,244.219 284.882,244.063L284.882,235.843C284.882,235.559 284.598,235.843 284.882,235.843L301.323,235.843C301.606,235.843 301.323,235.559 301.323,235.843L301.323,244.063C301.323,244.219 301.45,244.346 301.606,244.346L318.614,244.346C318.77,244.346 318.898,244.219 318.898,244.063L318.898,235.843C318.898,235.559 318.614,235.843 318.898,235.843L335.339,235.843C335.622,235.843 335.339,235.559 335.339,235.843L335.339,244.063C335.339,244.219 335.466,244.346 335.622,244.346L352.63,244.346C352.786,244.346 352.913,244.219 352.913,244.063L352.913,235.843C352.913,235.559 352.63,235.843 352.913,235.843L378.142,235.843C378.298,235.843 378.425,235.715 378.425,235.559L378.425,213.165C378.425,212.882 378.142,213.165 378.425,213.165L386.646,213.165C386.802,213.165 386.929,213.038 386.929,212.882L386.929,195.874C386.929,195.718 386.802,195.591 386.646,195.591L378.425,195.591C378.142,195.591 378.425,195.874 378.425,195.591L378.425,179.15C378.425,178.866 378.142,179.15 378.425,179.15L386.646,179.15C386.802,179.15 386.929,179.022 386.929,178.866L386.929,161.858C386.929,161.702 386.802,161.575 386.646,161.575L378.425,161.575C378.142,161.575 378.425,161.858 378.425,161.575L378.425,145.134C378.425,144.85 378.142,145.134 378.425,145.134L386.646,145.134C386.802,145.134 386.929,145.006 386.929,144.85L386.929,127.843C386.929,127.687 386.802,127.559 386.646,127.559L378.425,127.559C378.142,127.559 378.425,127.843 378.425,127.559L378.425,111.118C378.425,110.835 378.142,111.118 378.425,111.118L386.646,111.118C386.802,111.118 386.929,110.991 386.929,110.835L386.929,93.827C386.929,93.671 386.802,93.543 386.646,93.543L378.425,93.543C378.142,93.543 378.425,93.827 378.425,93.543L378.425,77.102C378.425,76.819 378.142,77.102 378.425,77.102L386.646,77.102C386.802,77.102 386.929,76.975 386.929,76.819L386.929,59.811C386.929,59.655 386.802,59.528 386.646,59.528L378.425,59.528C378.142,59.528 378.425,59.811 378.425,59.528L378.425,37.134C378.425,36.978 378.298,36.85 378.142,36.85L352.913,36.85C352.63,36.85 352.913,37.134 352.913,36.85L352.913,28.63C352.913,28.474 352.786,28.346 352.63,28.346L335.622,28.346C335.466,28.346 335.339,28.474 335.339,28.63L335.339,36.85C335.339,37.134 335.622,36.85 335.339,36.85L318.898,36.85C318.614,36.85 318.898,37.134 318.898,36.85L318.898,28.63C318.898,28.474 318.77,28.346 318.614,28.346L301.606,28.346C301.45,28.346 301.323,28.474 301.323,28.63L301.323,36.85C301.323,37.134 301.606,36.85 301.323,36.85L284.882,36.85C284.598,36.85 284.882,37.134 284.882,36.85L284.882,28.63C284.882,28.474 284.754,28.346 284.598,28.346L267.591,28.346C267.435,28.346 267.307,28.474 267.307,28.63L267.307,36.85C267.307,37.134 267.591,36.85 267.307,36.85L250.866,36.85C250.583,36.85 250.866,37.134 250.866,36.85L250.866,28.63C250.866,28.474 250.739,28.346 250.583,28.346L233.575,28.346C233.419,28.346 233.291,28.474 233.291,28.63L233.291,36.85C233.291,37.134 233.575,36.85 233.291,36.85L216.85,36.85C216.567,36.85 216.85,37.134 216.85,36.85L216.85,28.63C216.85,28.474 216.723,28.346 216.567,28.346L199.559,28.346C199.403,28.346 199.276,28.474 199.276,28.63L199.276,36.85C199.276,37.134 199.559,36.85 199.276,36.85L182.835,36.85C182.551,36.85 182.835,37.134 182.835,36.85L182.835,28.63C182.835,28.474 182.707,28.346 182.551,28.346L165.543,28.346C165.387,28.346 165.26,28.474 165.26,28.63L165.26,36.85C165.26,37.134 165.543,36.85 165.26,36.85L148.819,36.85C148.535,36.85 148.819,37.134 148.819,36.85L148.819,28.63C148.819,28.474 148.691,28.346 148.535,28.346L131.528,28.346C131.372,28.346 131.244,28.474 131.244,28.63L131.244,36.85C131.244,37.134 131.528,36.85 131.244,36.85L114.803,36.85C114.52,36.85 114.803,37.134 114.803,36.85L114.803,28.63C114.803,28.474 114.676,28.346 114.52,28.346L97.512,28.346C97.356,28.346 97.228,28.474 97.228,28.63L97.228,36.85C97.228,37.134 97.512,36.85 97.228,36.85L80.787,36.85C80.504,36.85 80.787,37.134 80.787,36.85L80.787,28.63C80.787,28.474 80.66,28.346 80.504,28.346L63.496,28.346C63.34,28.346 63.213,28.474 63.213,28.63L63.213,36.85C63.213,37.134 63.496,36.85 63.213,36.85L37.984,36.85C37.828,36.85 37.701,36.978 37.701,37.134L37.701,59.528C37.701,59.811 37.984,59.528 37.701,59.528L29.48,59.528C29.324,59.528 29.197,59.655 29.197,59.811L29.197,76.819C29.197,76.975 29.324,77.102 29.48,77.102L37.701,77.102C37.984,77.102 37.701,76.819 37.701,77.102L37.701,93.543C37.701,93.827 37.984,93.543 37.701,93.543L29.48,93.543C29.324,93.543 29.197,93.671 29.197,93.827L29.197,110.835C29.197,110.991 29.324,111.118 29.48,111.118L37.701,111.118C37.984,111.118 37.701,110.835 37.701,111.118L37.701,127.559C37.701,127.843 37.984,127.559 37.701,127.559L29.48,127.559C29.324,127.559 29.197,127.687 29.197,127.843L29.197,144.85C29.197,145.006 29.324,145.134 29.48,145.134L37.701,145.134C37.984,145.134 37.701,144.85 37.701,145.134L37.701,161.575C37.701,161.858 37.984,161.575 37.701,161.575L29.48,161.575C29.324,161.575 29.197,161.702 29.197,161.858L29.197,178.866C29.197,179.022 29.324,179.15 29.48,179.15L37.701,179.15C37.984,179.15 37.701,178.866 37.701,179.15L37.701,195.591C37.701,195.874 37.984,195.591 37.701,195.591L29.48,195.591C29.324,195.591 29.197,195.718 29.197,195.874L29.197,212.882C29.197,213.038 29.324,213.165 29.48,213.165L37.701,213.165C37.984,213.165 37.701,212.882 37.701,213.165L37.701,235.559C37.701,235.715 37.828,235.843 37.984,235.843" style="fill:none;fill-rule:nonzero;stroke:black;stroke-width:0.57px;"/>
        </g>
        <g transform="matrix(0.772133,0,0,0.772133,46.6103,9.62639)">
            <rect x="221.522" y="73" width="117.478" height="117.478" style="fill:none;stroke:black;stroke-width:0.78px;stroke-miterlimit:1.5;"/>
        </g>
        <g>
            <g transform="matrix(1.04575,0,0,1.04575,74.0556,122.482)">
                <circle cx="214.745" cy="81.777" r="6.777" style="fill:none;stroke:black;stroke-width:0.57px;stroke-miterlimit:1.5;"/>
            </g>
            <g transform="matrix(1.04575,0,0,1.04575,-48.7791,122.482)">
                <circle cx="214.745" cy="81.777" r="6.777" style="fill:none;stroke:black;stroke-width:0.57px;stroke-miterlimit:1.5;"/>
            </g>
            <g transform="matrix(1.04575,0,0,1.04575,12.6383,122.482)">
                <circle cx="214.745" cy="81.777" r="6.777" style="fill:none;stroke:black;stroke-width:0.57px;stroke-miterlimit:1.5;"/>
            </g>
            <g transform="matrix(1.04575,0,0,1.04575,-110.196,122.482)">
                <circle cx="214.745" cy="81.777" r="6.777" style="fill:none;stroke:black;stroke-width:0.57px;stroke-miterlimit:1.5;"/>
            </g>
        </g>
        <g>
            <g transform="matrix(2.81198e-18,0.0459231,-0.0459231,2.81198e-18,311.484,169.927)">
                <path d="M350,84.004C241.82,84.004 154,171.82 154,280.004C154,386.384 238.891,472.964 344.57,475.824C346.371,476.004 348.164,475.996 349.996,475.996C351.828,475.996 353.621,476 355.422,475.824C461.102,472.953 545.992,386.371 545.992,279.994C545.992,171.814 458.172,83.994 349.992,83.994L350,84.004ZM344.398,95.731L344.398,184.805L273.523,184.805C277.52,171.309 282.234,158.805 287.699,147.879C303.082,117.117 323.164,98.531 344.398,95.731ZM355.597,95.731C376.831,98.532 396.917,117.118 412.296,147.879C417.757,158.805 422.476,171.309 426.472,184.805L355.597,184.805L355.597,95.731ZM310.097,99.579C297.667,109.864 286.734,124.782 277.722,142.806C271.484,155.283 266.148,169.478 261.796,184.806L191.62,184.806C217.362,142.091 259.878,110.611 310.1,99.579L310.097,99.579ZM389.898,99.579C440.117,110.61 482.628,142.091 508.378,184.806L438.202,184.806C433.851,169.478 428.515,155.283 422.276,142.806C413.265,124.783 402.331,109.865 389.901,99.579L389.898,99.579ZM185.328,196.005L258.828,196.005C253.039,219.907 249.782,246.403 249.379,274.403L165.379,274.403C166.223,246.223 173.25,219.637 185.328,196.005ZM270.555,196.005L344.407,196.005L344.407,274.403L260.583,274.403C261.009,246.184 264.599,219.653 270.56,196.005L270.555,196.005ZM355.606,196.005L429.458,196.005C435.415,219.657 439.009,246.185 439.435,274.403L355.611,274.403L355.611,196.005L355.606,196.005ZM441.18,196.005L514.68,196.005C526.758,219.642 533.785,246.228 534.629,274.403L450.629,274.403C450.227,246.403 446.969,219.903 441.18,196.005ZM165.38,285.607L249.38,285.607C249.783,313.619 253.037,340.138 258.83,364.005L185.33,364.005C173.256,340.357 166.209,313.794 165.381,285.607L165.38,285.607ZM260.579,285.607L344.403,285.607L344.403,364.005L270.38,364.005C264.451,340.388 260.998,313.763 260.58,285.607L260.579,285.607ZM355.602,285.607L439.426,285.607C439.005,313.763 435.559,340.392 429.626,364.005L355.603,364.005L355.602,285.607ZM450.625,285.607L534.625,285.607C533.793,313.798 526.747,340.361 514.676,364.005L441.176,364.005C446.969,340.134 450.227,313.618 450.626,285.607L450.625,285.607ZM191.625,375.209L261.801,375.209C266.153,390.506 271.489,404.557 277.727,417.033C286.809,435.193 297.903,450.271 310.454,460.607C260.04,449.63 217.423,418.08 191.634,375.209L191.625,375.209ZM273.523,375.209L344.398,375.209L344.398,464.459C323.164,461.658 303.078,442.897 287.699,412.135C282.223,401.182 277.527,388.744 273.523,375.209ZM355.597,375.209L426.472,375.209C422.469,388.744 417.773,401.182 412.296,412.135C396.913,442.897 376.831,461.658 355.597,464.459L355.597,375.209ZM438.199,375.209L508.375,375.209C482.582,418.084 439.961,449.635 389.555,460.607C402.106,450.267 413.2,435.193 422.282,417.033C428.521,404.556 433.856,390.506 438.208,375.209L438.199,375.209Z" style="fill-rule:nonzero;stroke:black;stroke-width:21.78px;stroke-linecap:butt;stroke-miterlimit:2;"/>
            </g>
            <g transform="matrix(2.18832e-18,0.0357379,-0.0357379,2.18832e-18,247.208,173.493)">
                <g transform="matrix(1,0,0,1,0,-27.9815)">
                    <path d="M596.4,255.92L360.08,50.96C353.92,45.921 345.521,45.921 339.361,50.96L103.601,255.92C96.882,261.522 96.32,271.6 101.921,278.318C107.523,285.036 117.601,285.599 124.319,279.998L349.999,83.998L575.679,279.438C578.48,282.239 582.398,283.36 585.757,283.36C590.238,283.36 594.718,281.68 597.519,277.758C603.68,271.598 603.121,261.516 596.398,255.918L596.4,255.92Z" style="fill-rule:nonzero;stroke:black;stroke-width:27.98px;stroke-linecap:butt;stroke-miterlimit:2;"/>
                </g>
                <path d="M523.6,266C514.639,266 507.92,273.281 507.92,281.68L507.92,481.04L192.08,481.04L192.08,281.68C192.08,272.719 184.799,266 176.4,266C167.439,266 160.72,273.281 160.72,281.68L160.72,496.72C160.72,505.681 168.001,512.4 176.4,512.4L523.6,512.4C532.561,512.4 539.28,505.119 539.28,496.72L539.284,281.68C539.284,272.719 532.003,266 523.604,266L523.6,266Z" style="fill-rule:nonzero;stroke:black;stroke-width:27.98px;stroke-linecap:butt;stroke-miterlimit:2;"/>
                <g transform="matrix(1,0,0,1,0,-59.1988)">
                    <path d="M463.12,110.32L507.358,110.32L507.358,151.199C507.358,160.16 514.639,166.879 523.038,166.879C531.999,166.879 538.718,159.598 538.718,151.199L538.718,94.078C538.718,85.117 531.437,78.398 523.038,78.398L463.12,78.398C454.159,78.398 447.44,85.679 447.44,94.078C447.44,103.039 454.717,110.32 463.12,110.32Z" style="fill-rule:nonzero;stroke:black;stroke-width:27.98px;stroke-linecap:butt;stroke-miterlimit:2;"/>
                </g>
            </g>
            <g transform="matrix(2.35772e-18,0.0385045,-0.0385045,2.35772e-18,186.573,172.523)">
                <path d="M525,70C525,54.531 518.852,39.691 507.922,28.746C496.977,17.816 482.137,11.668 466.668,11.668L233.328,11.668C217.859,11.668 203.019,17.816 192.074,28.746C181.144,39.691 174.996,54.531 174.996,70L174.996,490C174.996,505.469 181.144,520.309 192.074,531.254C203.019,542.184 217.859,548.332 233.328,548.332L466.668,548.332C482.137,548.332 496.977,542.184 507.922,531.254C518.852,520.309 525,505.469 525,490L525,70ZM268.33,35L233.33,35C224.045,35 215.142,38.688 208.588,45.254C202.018,51.813 198.33,60.715 198.33,70L198.33,490C198.33,499.285 202.017,508.188 208.588,514.746C215.143,521.312 224.045,525 233.33,525L466.67,525C475.955,525 484.858,521.313 491.412,514.746C497.982,508.187 501.67,499.285 501.67,490L501.67,70C501.67,60.715 497.982,51.812 491.412,45.254C484.857,38.688 475.955,35 466.67,35L431.67,35L431.67,46.668C431.67,66 416.002,81.668 396.67,81.668L303.334,81.668C284.002,81.668 268.334,66 268.334,46.668L268.33,35ZM408.33,35L408.33,46.668C408.33,53.106 403.103,58.332 396.666,58.332L303.33,58.332C296.893,58.332 291.666,53.105 291.666,46.668L291.666,35L408.33,35Z" style="stroke:black;stroke-width:25.97px;stroke-linecap:butt;stroke-miterlimit:2;"/>
                <g transform="matrix(1,0,0,1,0,-25.971)">
                    <path d="M303.33,501.67L396.666,501.67C403.104,501.67 408.33,496.443 408.33,490.002C408.33,483.561 403.103,478.334 396.666,478.334L303.33,478.334C296.893,478.334 291.666,483.561 291.666,490.002C291.666,496.443 296.893,501.67 303.33,501.67Z" style="stroke:black;stroke-width:25.97px;stroke-linecap:butt;stroke-miterlimit:2;"/>
                </g>
            </g>
            <g transform="matrix(3.48925e-18,0.0569837,-0.0569837,3.48925e-18,131.329,165.556)">
                <path d="M463.92,234.84C453.475,234.84 444.1,239.434 437.65,246.672C432.662,233.254 419.763,223.641 404.627,223.641C394.182,223.641 384.807,228.235 378.354,235.473C373.366,222.055 360.475,212.442 345.331,212.442C336.03,212.442 327.585,216.086 321.28,221.989L321.28,171.27C321.28,151.829 305.471,136.016 286.026,136.016C266.588,136.016 250.772,151.825 250.772,171.27L250.772,190.458L228.831,190.458C219.569,190.458 212.03,182.919 212.03,173.657L212.03,124.192C212.03,114.93 219.569,107.391 228.831,107.391L364.151,107.391C373.413,107.391 380.952,114.93 380.952,124.192L380.952,173.657C380.952,182.919 373.413,190.458 364.151,190.458L341.292,190.458L341.292,201.657L364.151,201.657C379.596,201.657 392.151,189.095 392.151,173.657L392.151,124.192C392.151,108.754 379.596,96.192 364.151,96.192L228.811,96.192C213.373,96.192 200.811,108.754 200.811,124.192L200.811,173.657C200.811,189.095 213.373,201.657 228.811,201.657L250.752,201.657L250.752,330.807C250.752,378.1 273.951,419.686 308.779,443.277L297.404,443.277L297.404,463.808L468.204,463.808L468.204,443.277L331.584,443.277C293.041,426.031 265.174,386.601 261.947,339.877L261.947,171.277C261.947,158.011 272.74,147.226 285.998,147.226C299.26,147.226 310.049,158.011 310.049,171.277L310.049,292.077L321.248,292.077L321.248,247.698C321.248,234.436 332.041,223.647 345.299,223.647C358.561,223.647 369.35,234.44 369.35,247.698L369.35,298.608L380.549,298.608L380.549,258.897C380.549,245.635 391.342,234.846 404.6,234.846C417.862,234.846 428.647,245.639 428.647,258.897L428.647,306.077L439.846,306.077L439.846,270.097C439.846,256.835 450.643,246.046 463.897,246.046C477.163,246.046 487.948,256.839 487.948,270.097L487.948,339.874C486.065,367.206 475.741,392.042 459.796,411.413L459.796,427.776C483.136,404.323 498.062,371.374 499.062,334.721C499.089,334.733 499.124,334.733 499.152,334.733L499.152,330.807L499.167,325.201L499.167,270.103C499.16,250.665 483.347,234.849 463.909,234.849L463.92,234.84Z" style="fill-rule:nonzero;stroke:black;stroke-width:17.55px;stroke-linecap:butt;stroke-miterlimit:2;"/>
            </g>
        </g>
        <g transform="matrix(1.92159e-17,0.31382,-0.31382,1.92159e-17,196.642,64.423)">
            <g>
                <rect x="5" y="105" width="10" height="10"/>
                <rect x="5" y="115" width="10" height="10"/>
                <rect x="5" y="125" width="10" height="10"/>
                <rect x="5" y="135" width="10" height="10"/>
                <rect x="5" y="145" width="10" height="10"/>
                <rect x="5" y="165" width="10" height="10"/>
                <rect x="5" y="195" width="10" height="10"/>
                <rect x="5" y="205" width="10" height="10"/>
                <rect x="15" y="85" width="10" height="10"/>
                <rect x="15" y="95" width="10" height="10"/>
                <rect x="15" y="105" width="10" height="10"/>
                <rect x="15" y="135" width="10" height="10"/>
                <rect x="15" y="145" width="10" height="10"/>
                <rect x="15" y="155" width="10" height="10"/>
                <rect x="15" y="165" width="10" height="10"/>
                <rect x="15" y="195" width="10" height="10"/>
                <rect x="25" y="105" width="10" height="10"/>
                <rect x="25" y="125" width="10" height="10"/>
                <rect x="25" y="135" width="10" height="10"/>
                <rect x="25" y="145" width="10" height="10"/>
                <rect x="25" y="155" width="10" height="10"/>
                <rect x="25" y="195" width="10" height="10"/>
                <rect x="35" y="85" width="10" height="10"/>
                <rect x="35" y="95" width="10" height="10"/>
                <rect x="35" y="105" width="10" height="10"/>
                <rect x="35" y="175" width="10" height="10"/>
                <rect x="35" y="205" width="10" height="10"/>
                <rect x="45" y="85" width="10" height="10"/>
                <rect x="45" y="105" width="10" height="10"/>
                <rect x="45" y="115" width="10" height="10"/>
                <rect x="45" y="125" width="10" height="10"/>
                <rect x="45" y="135" width="10" height="10"/>
                <rect x="45" y="145" width="10" height="10"/>
                <rect x="45" y="155" width="10" height="10"/>
                <rect x="45" y="165" width="10" height="10"/>
                <rect x="45" y="195" width="10" height="10"/>
                <rect x="45" y="205" width="10" height="10"/>
                <rect x="55" y="95" width="10" height="10"/>
                <rect x="55" y="165" width="10" height="10"/>
                <rect x="55" y="205" width="10" height="10"/>
                <rect x="65" y="85" width="10" height="10"/>
                <rect x="65" y="105" width="10" height="10"/>
                <rect x="65" y="125" width="10" height="10"/>
                <rect x="65" y="145" width="10" height="10"/>
                <rect x="65" y="165" width="10" height="10"/>
                <rect x="65" y="185" width="10" height="10"/>
                <rect x="65" y="205" width="10" height="10"/>
                <rect x="75" y="85" width="10" height="10"/>
                <rect x="75" y="105" width="10" height="10"/>
                <rect x="75" y="125" width="10" height="10"/>
                <rect x="75" y="135" width="10" height="10"/>
                <rect x="75" y="155" width="10" height="10"/>
                <rect x="75" y="165" width="10" height="10"/>
                <rect x="75" y="175" width="10" height="10"/>
                <rect x="75" y="185" width="10" height="10"/>
                <rect x="75" y="195" width="10" height="10"/>
                <rect x="85" y="15" width="10" height="10"/>
                <rect x="85" y="35" width="10" height="10"/>
                <rect x="85" y="45" width="10" height="10"/>
                <rect x="85" y="55" width="10" height="10"/>
                <rect x="85" y="65" width="10" height="10"/>
                <rect x="85" y="85" width="10" height="10"/>
                <rect x="85" y="95" width="10" height="10"/>
                <rect x="85" y="105" width="10" height="10"/>
                <rect x="85" y="125" width="10" height="10"/>
                <rect x="85" y="135" width="10" height="10"/>
                <rect x="85" y="155" width="10" height="10"/>
                <rect x="85" y="165" width="10" height="10"/>
                <rect x="85" y="195" width="10" height="10"/>
                <rect x="85" y="215" width="10" height="10"/>
                <rect x="85" y="225" width="10" height="10"/>
                <rect x="85" y="245" width="10" height="10"/>
                <rect x="85" y="255" width="10" height="10"/>
                <rect x="85" y="275" width="10" height="10"/>
                <rect x="95" y="25" width="10" height="10"/>
                <rect x="95" y="75" width="10" height="10"/>
                <rect x="95" y="85" width="10" height="10"/>
                <rect x="95" y="145" width="10" height="10"/>
                <rect x="95" y="155" width="10" height="10"/>
                <rect x="95" y="165" width="10" height="10"/>
                <rect x="95" y="185" width="10" height="10"/>
                <rect x="95" y="215" width="10" height="10"/>
                <rect x="95" y="225" width="10" height="10"/>
                <rect x="95" y="235" width="10" height="10"/>
                <rect x="95" y="245" width="10" height="10"/>
                <rect x="95" y="255" width="10" height="10"/>
                <rect x="95" y="275" width="10" height="10"/>
                <rect x="105" y="5" width="10" height="10"/>
                <rect x="105" y="15" width="10" height="10"/>
                <rect x="105" y="45" width="10" height="10"/>
                <rect x="105" y="65" width="10" height="10"/>
                <rect x="105" y="105" width="10" height="10"/>
                <rect x="105" y="135" width="10" height="10"/>
                <rect x="105" y="145" width="10" height="10"/>
                <rect x="105" y="155" width="10" height="10"/>
                <rect x="105" y="175" width="10" height="10"/>
                <rect x="105" y="185" width="10" height="10"/>
                <rect x="105" y="195" width="10" height="10"/>
                <rect x="105" y="205" width="10" height="10"/>
                <rect x="105" y="215" width="10" height="10"/>
                <rect x="105" y="225" width="10" height="10"/>
                <rect x="105" y="235" width="10" height="10"/>
                <rect x="105" y="245" width="10" height="10"/>
                <rect x="105" y="255" width="10" height="10"/>
                <rect x="115" y="35" width="10" height="10"/>
                <rect x="115" y="45" width="10" height="10"/>
                <rect x="115" y="55" width="10" height="10"/>
                <rect x="115" y="75" width="10" height="10"/>
                <rect x="115" y="85" width="10" height="10"/>
                <rect x="115" y="105" width="10" height="10"/>
                <rect x="115" y="125" width="10" height="10"/>
                <rect x="115" y="175" width="10" height="10"/>
                <rect x="115" y="195" width="10" height="10"/>
                <rect x="115" y="205" width="10" height="10"/>
                <rect x="115" y="245" width="10" height="10"/>
                <rect x="115" y="255" width="10" height="10"/>
                <rect x="115" y="285" width="10" height="10"/>
                <rect x="125" y="5" width="10" height="10"/>
                <rect x="125" y="15" width="10" height="10"/>
                <rect x="125" y="45" width="10" height="10"/>
                <rect x="125" y="65" width="10" height="10"/>
                <rect x="125" y="85" width="10" height="10"/>
                <rect x="125" y="95" width="10" height="10"/>
                <rect x="125" y="105" width="10" height="10"/>
                <rect x="125" y="115" width="10" height="10"/>
                <rect x="125" y="125" width="10" height="10"/>
                <rect x="125" y="135" width="10" height="10"/>
                <rect x="125" y="165" width="10" height="10"/>
                <rect x="125" y="205" width="10" height="10"/>
                <rect x="125" y="215" width="10" height="10"/>
                <rect x="125" y="225" width="10" height="10"/>
                <rect x="125" y="255" width="10" height="10"/>
                <rect x="125" y="265" width="10" height="10"/>
                <rect x="125" y="275" width="10" height="10"/>
                <rect x="135" y="25" width="10" height="10"/>
                <rect x="135" y="45" width="10" height="10"/>
                <rect x="135" y="55" width="10" height="10"/>
                <rect x="135" y="75" width="10" height="10"/>
                <rect x="135" y="95" width="10" height="10"/>
                <rect x="135" y="115" width="10" height="10"/>
                <rect x="135" y="145" width="10" height="10"/>
                <rect x="135" y="165" width="10" height="10"/>
                <rect x="135" y="225" width="10" height="10"/>
                <rect x="135" y="245" width="10" height="10"/>
                <rect x="135" y="265" width="10" height="10"/>
                <rect x="135" y="285" width="10" height="10"/>
                <rect x="145" y="15" width="10" height="10"/>
                <rect x="145" y="35" width="10" height="10"/>
                <rect x="145" y="55" width="10" height="10"/>
                <rect x="145" y="65" width="10" height="10"/>
                <rect x="145" y="95" width="10" height="10"/>
                <rect x="145" y="155" width="10" height="10"/>
                <rect x="145" y="165" width="10" height="10"/>
                <rect x="145" y="185" width="10" height="10"/>
                <rect x="145" y="195" width="10" height="10"/>
                <rect x="145" y="205" width="10" height="10"/>
                <rect x="145" y="225" width="10" height="10"/>
                <rect x="145" y="235" width="10" height="10"/>
                <rect x="145" y="255" width="10" height="10"/>
                <rect x="145" y="275" width="10" height="10"/>
                <rect x="145" y="285" width="10" height="10"/>
                <rect x="155" y="5" width="10" height="10"/>
                <rect x="155" y="45" width="10" height="10"/>
                <rect x="155" y="85" width="10" height="10"/>
                <rect x="155" y="125" width="10" height="10"/>
                <rect x="155" y="135" width="10" height="10"/>
                <rect x="155" y="165" width="10" height="10"/>
                <rect x="155" y="215" width="10" height="10"/>
                <rect x="155" y="245" width="10" height="10"/>
                <rect x="155" y="255" width="10" height="10"/>
                <rect x="155" y="265" width="10" height="10"/>
                <rect x="155" y="275" width="10" height="10"/>
                <rect x="155" y="285" width="10" height="10"/>
                <rect x="165" y="15" width="10" height="10"/>
                <rect x="165" y="25" width="10" height="10"/>
                <rect x="165" y="35" width="10" height="10"/>
                <rect x="165" y="45" width="10" height="10"/>
                <rect x="165" y="65" width="10" height="10"/>
                <rect x="165" y="75" width="10" height="10"/>
                <rect x="165" y="95" width="10" height="10"/>
                <rect x="165" y="105" width="10" height="10"/>
                <rect x="165" y="115" width="10" height="10"/>
                <rect x="165" y="125" width="10" height="10"/>
                <rect x="165" y="145" width="10" height="10"/>
                <rect x="165" y="175" width="10" height="10"/>
                <rect x="165" y="185" width="10" height="10"/>
                <rect x="165" y="195" width="10" height="10"/>
                <rect x="165" y="205" width="10" height="10"/>
                <rect x="165" y="255" width="10" height="10"/>
                <rect x="165" y="285" width="10" height="10"/>
                <rect x="175" y="5" width="10" height="10"/>
                <rect x="175" y="15" width="10" height="10"/>
                <rect x="175" y="25" width="10" height="10"/>
                <rect x="175" y="75" width="10" height="10"/>
                <rect x="175" y="95" width="10" height="10"/>
                <rect x="175" y="125" width="10" height="10"/>
                <rect x="175" y="135" width="10" height="10"/>
                <rect x="175" y="145" width="10" height="10"/>
                <rect x="175" y="175" width="10" height="10"/>
                <rect x="175" y="235" width="10" height="10"/>
                <rect x="175" y="245" width="10" height="10"/>
                <rect x="185" y="5" width="10" height="10"/>
                <rect x="185" y="15" width="10" height="10"/>
                <rect x="185" y="45" width="10" height="10"/>
                <rect x="185" y="65" width="10" height="10"/>
                <rect x="185" y="75" width="10" height="10"/>
                <rect x="185" y="95" width="10" height="10"/>
                <rect x="185" y="105" width="10" height="10"/>
                <rect x="185" y="125" width="10" height="10"/>
                <rect x="185" y="145" width="10" height="10"/>
                <rect x="185" y="165" width="10" height="10"/>
                <rect x="185" y="185" width="10" height="10"/>
                <rect x="185" y="195" width="10" height="10"/>
                <rect x="185" y="245" width="10" height="10"/>
                <rect x="185" y="265" width="10" height="10"/>
                <rect x="185" y="285" width="10" height="10"/>
                <rect x="195" y="5" width="10" height="10"/>
                <rect x="195" y="15" width="10" height="10"/>
                <rect x="195" y="35" width="10" height="10"/>
                <rect x="195" y="45" width="10" height="10"/>
                <rect x="195" y="75" width="10" height="10"/>
                <rect x="195" y="115" width="10" height="10"/>
                <rect x="195" y="135" width="10" height="10"/>
                <rect x="195" y="155" width="10" height="10"/>
                <rect x="195" y="165" width="10" height="10"/>
                <rect x="195" y="185" width="10" height="10"/>
                <rect x="195" y="195" width="10" height="10"/>
                <rect x="195" y="205" width="10" height="10"/>
                <rect x="195" y="215" width="10" height="10"/>
                <rect x="195" y="225" width="10" height="10"/>
                <rect x="195" y="235" width="10" height="10"/>
                <rect x="195" y="265" width="10" height="10"/>
                <rect x="195" y="275" width="10" height="10"/>
                <rect x="205" y="5" width="10" height="10"/>
                <rect x="205" y="15" width="10" height="10"/>
                <rect x="205" y="25" width="10" height="10"/>
                <rect x="205" y="35" width="10" height="10"/>
                <rect x="205" y="55" width="10" height="10"/>
                <rect x="205" y="65" width="10" height="10"/>
                <rect x="205" y="85" width="10" height="10"/>
                <rect x="205" y="95" width="10" height="10"/>
                <rect x="205" y="125" width="10" height="10"/>
                <rect x="205" y="135" width="10" height="10"/>
                <rect x="205" y="145" width="10" height="10"/>
                <rect x="205" y="165" width="10" height="10"/>
                <rect x="205" y="175" width="10" height="10"/>
                <rect x="205" y="185" width="10" height="10"/>
                <rect x="205" y="195" width="10" height="10"/>
                <rect x="205" y="205" width="10" height="10"/>
                <rect x="205" y="215" width="10" height="10"/>
                <rect x="205" y="225" width="10" height="10"/>
                <rect x="205" y="235" width="10" height="10"/>
                <rect x="205" y="245" width="10" height="10"/>
                <rect x="205" y="255" width="10" height="10"/>
                <rect x="205" y="265" width="10" height="10"/>
                <rect x="205" y="275" width="10" height="10"/>
                <rect x="215" y="85" width="10" height="10"/>
                <rect x="215" y="105" width="10" height="10"/>
                <rect x="215" y="155" width="10" height="10"/>
                <rect x="215" y="175" width="10" height="10"/>
                <rect x="215" y="185" width="10" height="10"/>
                <rect x="215" y="205" width="10" height="10"/>
                <rect x="215" y="245" width="10" height="10"/>
                <rect x="215" y="255" width="10" height="10"/>
                <rect x="215" y="265" width="10" height="10"/>
                <rect x="225" y="95" width="10" height="10"/>
                <rect x="225" y="105" width="10" height="10"/>
                <rect x="225" y="115" width="10" height="10"/>
                <rect x="225" y="125" width="10" height="10"/>
                <rect x="225" y="135" width="10" height="10"/>
                <rect x="225" y="145" width="10" height="10"/>
                <rect x="225" y="155" width="10" height="10"/>
                <rect x="225" y="165" width="10" height="10"/>
                <rect x="225" y="195" width="10" height="10"/>
                <rect x="225" y="205" width="10" height="10"/>
                <rect x="225" y="225" width="10" height="10"/>
                <rect x="225" y="245" width="10" height="10"/>
                <rect x="225" y="265" width="10" height="10"/>
                <rect x="235" y="85" width="10" height="10"/>
                <rect x="235" y="95" width="10" height="10"/>
                <rect x="235" y="115" width="10" height="10"/>
                <rect x="235" y="135" width="10" height="10"/>
                <rect x="235" y="145" width="10" height="10"/>
                <rect x="235" y="155" width="10" height="10"/>
                <rect x="235" y="165" width="10" height="10"/>
                <rect x="235" y="185" width="10" height="10"/>
                <rect x="235" y="195" width="10" height="10"/>
                <rect x="235" y="205" width="10" height="10"/>
                <rect x="235" y="245" width="10" height="10"/>
                <rect x="235" y="255" width="10" height="10"/>
                <rect x="235" y="275" width="10" height="10"/>
                <rect x="245" y="85" width="10" height="10"/>
                <rect x="245" y="95" width="10" height="10"/>
                <rect x="245" y="105" width="10" height="10"/>
                <rect x="245" y="115" width="10" height="10"/>
                <rect x="245" y="125" width="10" height="10"/>
                <rect x="245" y="135" width="10" height="10"/>
                <rect x="245" y="155" width="10" height="10"/>
                <rect x="245" y="175" width="10" height="10"/>
                <rect x="245" y="195" width="10" height="10"/>
                <rect x="245" y="205" width="10" height="10"/>
                <rect x="245" y="215" width="10" height="10"/>
                <rect x="245" y="225" width="10" height="10"/>
                <rect x="245" y="235" width="10" height="10"/>
                <rect x="245" y="245" width="10" height="10"/>
                <rect x="255" y="85" width="10" height="10"/>
                <rect x="255" y="105" width="10" height="10"/>
                <rect x="255" y="115" width="10" height="10"/>
                <rect x="255" y="125" width="10" height="10"/>
                <rect x="255" y="135" width="10" height="10"/>
                <rect x="255" y="175" width="10" height="10"/>
                <rect x="255" y="185" width="10" height="10"/>
                <rect x="255" y="235" width="10" height="10"/>
                <rect x="255" y="255" width="10" height="10"/>
                <rect x="255" y="265" width="10" height="10"/>
                <rect x="255" y="275" width="10" height="10"/>
                <rect x="265" y="95" width="10" height="10"/>
                <rect x="265" y="105" width="10" height="10"/>
                <rect x="265" y="135" width="10" height="10"/>
                <rect x="265" y="155" width="10" height="10"/>
                <rect x="265" y="175" width="10" height="10"/>
                <rect x="265" y="205" width="10" height="10"/>
                <rect x="265" y="215" width="10" height="10"/>
                <rect x="265" y="235" width="10" height="10"/>
                <rect x="265" y="245" width="10" height="10"/>
                <rect x="265" y="275" width="10" height="10"/>
                <rect x="265" y="285" width="10" height="10"/>
                <rect x="275" y="85" width="10" height="10"/>
                <rect x="275" y="95" width="10" height="10"/>
                <rect x="275" y="105" width="10" height="10"/>
                <rect x="275" y="115" width="10" height="10"/>
                <rect x="275" y="165" width="10" height="10"/>
                <rect x="275" y="185" width="10" height="10"/>
                <rect x="275" y="195" width="10" height="10"/>
                <rect x="275" y="205" width="10" height="10"/>
                <rect x="275" y="245" width="10" height="10"/>
                <rect x="275" y="255" width="10" height="10"/>
                <rect x="275" y="265" width="10" height="10"/>
                <rect x="275" y="285" width="10" height="10"/>
                <rect x="285" y="105" width="10" height="10"/>
                <rect x="285" y="115" width="10" height="10"/>
                <rect x="285" y="125" width="10" height="10"/>
                <rect x="285" y="155" width="10" height="10"/>
                <rect x="285" y="195" width="10" height="10"/>
                <rect x="285" y="205" width="10" height="10"/>
                <rect x="285" y="225" width="10" height="10"/>
                <rect x="285" y="235" width="10" height="10"/>
                <rect x="285" y="245" width="10" height="10"/>
                <rect x="285" y="265" width="10" height="10"/>
            </g>
            <g>
                <rect x="5" y="5" width="10" height="10"/>
                <rect x="5" y="15" width="10" height="10"/>
                <rect x="5" y="25" width="10" height="10"/>
                <rect x="5" y="35" width="10" height="10"/>
                <rect x="5" y="45" width="10" height="10"/>
                <rect x="5" y="55" width="10" height="10"/>
                <rect x="5" y="65" width="10" height="10"/>
                <rect x="15" y="5" width="10" height="10"/>
                <rect x="15" y="65" width="10" height="10"/>
                <rect x="25" y="5" width="10" height="10"/>
                <rect x="25" y="65" width="10" height="10"/>
                <rect x="35" y="5" width="10" height="10"/>
                <rect x="35" y="65" width="10" height="10"/>
                <rect x="45" y="5" width="10" height="10"/>
                <rect x="45" y="65" width="10" height="10"/>
                <rect x="55" y="5" width="10" height="10"/>
                <rect x="55" y="65" width="10" height="10"/>
                <rect x="65" y="5" width="10" height="10"/>
                <rect x="65" y="15" width="10" height="10"/>
                <rect x="65" y="25" width="10" height="10"/>
                <rect x="65" y="35" width="10" height="10"/>
                <rect x="65" y="45" width="10" height="10"/>
                <rect x="65" y="55" width="10" height="10"/>
                <rect x="65" y="65" width="10" height="10"/>
            </g>
            <g>
                <rect x="25" y="25" width="10" height="10"/>
                <rect x="25" y="35" width="10" height="10"/>
                <rect x="25" y="45" width="10" height="10"/>
                <rect x="35" y="25" width="10" height="10"/>
                <rect x="35" y="35" width="10" height="10"/>
                <rect x="35" y="45" width="10" height="10"/>
                <rect x="45" y="25" width="10" height="10"/>
                <rect x="45" y="35" width="10" height="10"/>
                <rect x="45" y="45" width="10" height="10"/>
            </g>
            <g>
                <rect x="225" y="5" width="10" height="10"/>
                <rect x="225" y="15" width="10" height="10"/>
                <rect x="225" y="25" width="10" height="10"/>
                <rect x="225" y="35" width="10" height="10"/>
                <rect x="225" y="45" width="10" height="10"/>
                <rect x="225" y="55" width="10" height="10"/>
                <rect x="225" y="65" width="10" height="10"/>
                <rect x="235" y="5" width="10" height="10"/>
                <rect x="235" y="65" width="10" height="10"/>
                <rect x="245" y="5" width="10" height="10"/>
                <rect x="245" y="65" width="10" height="10"/>
                <rect x="255" y="5" width="10" height="10"/>
                <rect x="255" y="65" width="10" height="10"/>
                <rect x="265" y="5" width="10" height="10"/>
                <rect x="265" y="65" width="10" height="10"/>
                <rect x="275" y="5" width="10" height="10"/>
                <rect x="275" y="65" width="10" height="10"/>
                <rect x="285" y="5" width="10" height="10"/>
                <rect x="285" y="15" width="10" height="10"/>
                <rect x="285" y="25" width="10" height="10"/>
                <rect x="285" y="35" width="10" height="10"/>
                <rect x="285" y="45" width="10" height="10"/>
                <rect x="285" y="55" width="10" height="10"/>
                <rect x="285" y="65" width="10" height="10"/>
            </g>
            <g>
                <rect x="245" y="25" width="10" height="10"/>
                <rect x="245" y="35" width="10" height="10"/>
                <rect x="245" y="45" width="10" height="10"/>
                <rect x="255" y="25" width="10" height="10"/>
                <rect x="255" y="35" width="10" height="10"/>
                <rect x="255" y="45" width="10" height="10"/>
                <rect x="265" y="25" width="10" height="10"/>
                <rect x="265" y="35" width="10" height="10"/>
                <rect x="265" y="45" width="10" height="10"/>
            </g>
            <g>
                <rect x="5" y="225" width="10" height="10"/>
                <rect x="5" y="235" width="10" height="10"/>
                <rect x="5" y="245" width="10" height="10"/>
                <rect x="5" y="255" width="10" height="10"/>
                <rect x="5" y="265" width="10" height="10"/>
                <rect x="5" y="275" width="10" height="10"/>
                <rect x="5" y="285" width="10" height="10"/>
                <rect x="15" y="225" width="10" height="10"/>
                <rect x="15" y="285" width="10" height="10"/>
                <rect x="25" y="225" width="10" height="10"/>
                <rect x="25" y="285" width="10" height="10"/>
                <rect x="35" y="225" width="10" height="10"/>
                <rect x="35" y="285" width="10" height="10"/>
                <rect x="45" y="225" width="10" height="10"/>
                <rect x="45" y="285" width="10" height="10"/>
                <rect x="55" y="225" width="10" height="10"/>
                <rect x="55" y="285" width="10" height="10"/>
                <rect x="65" y="225" width="10" height="10"/>
                <rect x="65" y="235" width="10" height="10"/>
                <rect x="65" y="245" width="10" height="10"/>
                <rect x="65" y="255" width="10" height="10"/>
                <rect x="65" y="265" width="10" height="10"/>
                <rect x="65" y="275" width="10" height="10"/>
                <rect x="65" y="285" width="10" height="10"/>
            </g>
            <g>
                <rect x="25" y="245" width="10" height="10"/>
                <rect x="25" y="255" width="10" height="10"/>
                <rect x="25" y="265" width="10" height="10"/>
                <rect x="35" y="245" width="10" height="10"/>
                <rect x="35" y="255" width="10" height="10"/>
                <rect x="35" y="265" width="10" height="10"/>
                <rect x="45" y="245" width="10" height="10"/>
                <rect x="45" y="255" width="10" height="10"/>
                <rect x="45" y="265" width="10" height="10"/>
            </g>
        </g>
    </g>
    <g id="Back">
        <path d="M399.969,235.843L425.197,235.843C425.48,235.843 425.197,235.559 425.197,235.843L425.197,244.063C425.197,244.219 425.324,244.346 425.48,244.346L442.488,244.346C442.644,244.346 442.772,244.219 442.772,244.063L442.772,235.843C442.772,235.559 442.488,235.843 442.772,235.843L459.213,235.843C459.496,235.843 459.213,235.559 459.213,235.843L459.213,244.063C459.213,244.219 459.34,244.346 459.496,244.346L476.504,244.346C476.66,244.346 476.787,244.219 476.787,244.063L476.787,235.843C476.787,235.559 476.504,235.843 476.787,235.843L493.228,235.843C493.512,235.843 493.228,235.559 493.228,235.843L493.228,244.063C493.228,244.219 493.356,244.346 493.512,244.346L510.52,244.346C510.676,244.346 510.803,244.219 510.803,244.063L510.803,235.843C510.803,235.559 510.52,235.843 510.803,235.843L527.244,235.843C527.528,235.843 527.244,235.559 527.244,235.843L527.244,244.063C527.244,244.219 527.372,244.346 527.528,244.346L544.535,244.346C544.691,244.346 544.819,244.219 544.819,244.063L544.819,235.843C544.819,235.559 544.535,235.843 544.819,235.843L561.26,235.843C561.543,235.843 561.26,235.559 561.26,235.843L561.26,244.063C561.26,244.219 561.387,244.346 561.543,244.346L578.551,244.346C578.707,244.346 578.835,244.219 578.835,244.063L578.835,235.843C578.835,235.559 578.551,235.843 578.835,235.843L595.276,235.843C595.559,235.843 595.276,235.559 595.276,235.843L595.276,244.063C595.276,244.219 595.403,244.346 595.559,244.346L612.567,244.346C612.723,244.346 612.85,244.219 612.85,244.063L612.85,235.843C612.85,235.559 612.567,235.843 612.85,235.843L629.291,235.843C629.575,235.843 629.291,235.559 629.291,235.843L629.291,244.063C629.291,244.219 629.419,244.346 629.575,244.346L646.583,244.346C646.739,244.346 646.866,244.219 646.866,244.063L646.866,235.843C646.866,235.559 646.583,235.843 646.866,235.843L663.307,235.843C663.591,235.843 663.307,235.559 663.307,235.843L663.307,244.063C663.307,244.219 663.435,244.346 663.591,244.346L680.598,244.346C680.754,244.346 680.882,244.219 680.882,244.063L680.882,235.843C680.882,235.559 680.598,235.843 680.882,235.843L697.323,235.843C697.606,235.843 697.323,235.559 697.323,235.843L697.323,244.063C697.323,244.219 697.45,244.346 697.606,244.346L714.614,244.346C714.77,244.346 714.898,244.219 714.898,244.063L714.898,235.843C714.898,235.559 714.614,235.843 714.898,235.843L740.126,235.843C740.282,235.843 740.409,235.715 740.409,235.559L740.409,213.165C740.409,212.882 740.126,213.165 740.409,213.165L748.63,213.165C748.786,213.165 748.913,213.038 748.913,212.882L748.913,195.874C748.913,195.718 748.786,195.591 748.63,195.591L740.409,195.591C740.126,195.591 740.409,195.874 740.409,195.591L740.409,179.15C740.409,178.866 740.126,179.15 740.409,179.15L748.63,179.15C748.786,179.15 748.913,179.022 748.913,178.866L748.913,161.858C748.913,161.702 748.786,161.575 748.63,161.575L740.409,161.575C740.126,161.575 740.409,161.858 740.409,161.575L740.409,145.134C740.409,144.85 740.126,145.134 740.409,145.134L748.63,145.134C748.786,145.134 748.913,145.006 748.913,144.85L748.913,127.843C748.913,127.687 748.786,127.559 748.63,127.559L740.409,127.559C740.126,127.559 740.409,127.843 740.409,127.559L740.409,111.118C740.409,110.835 740.126,111.118 740.409,111.118L748.63,111.118C748.786,111.118 748.913,110.991 748.913,110.835L748.913,93.827C748.913,93.671 748.786,93.543 748.63,93.543L740.409,93.543C740.126,93.543 740.409,93.827 740.409,93.543L740.409,77.102C740.409,76.819 740.126,77.102 740.409,77.102L748.63,77.102C748.786,77.102 748.913,76.975 748.913,76.819L748.913,59.811C748.913,59.655 748.786,59.528 748.63,59.528L740.409,59.528C740.126,59.528 740.409,59.811 740.409,59.528L740.409,37.134C740.409,36.978 740.282,36.85 740.126,36.85L714.898,36.85C714.614,36.85 714.898,37.134 714.898,36.85L714.898,28.63C714.898,28.474 714.77,28.346 714.614,28.346L697.606,28.346C697.45,28.346 697.323,28.474 697.323,28.63L697.323,36.85C697.323,37.134 697.606,36.85 697.323,36.85L680.882,36.85C680.598,36.85 680.882,37.134 680.882,36.85L680.882,28.63C680.882,28.474 680.754,28.346 680.598,28.346L663.591,28.346C663.435,28.346 663.307,28.474 663.307,28.63L663.307,36.85C663.307,37.134 663.591,36.85 663.307,36.85L646.866,36.85C646.583,36.85 646.866,37.134 646.866,36.85L646.866,28.63C646.866,28.474 646.739,28.346 646.583,28.346L629.575,28.346C629.419,28.346 629.291,28.474 629.291,28.63L629.291,36.85C629.291,37.134 629.575,36.85 629.291,36.85L612.85,36.85C612.567,36.85 612.85,37.134 612.85,36.85L612.85,28.63C612.85,28.474 612.723,28.346 612.567,28.346L595.559,28.346C595.403,28.346 595.276,28.474 595.276,28.63L595.276,36.85C595.276,37.134 595.559,36.85 595.276,36.85L578.835,36.85C578.551,36.85 578.835,37.134 578.835,36.85L578.835,28.63C578.835,28.474 578.707,28.346 578.551,28.346L561.543,28.346C561.387,28.346 561.26,28.474 561.26,28.63L561.26,36.85C561.26,37.134 561.543,36.85 561.26,36.85L544.819,36.85C544.535,36.85 544.819,37.134 544.819,36.85L544.819,28.63C544.819,28.474 544.691,28.346 544.535,28.346L527.528,28.346C527.372,28.346 527.244,28.474 527.244,28.63L527.244,36.85C527.244,37.134 527.528,36.85 527.244,36.85L510.803,36.85C510.52,36.85 510.803,37.134 510.803,36.85L510.803,28.63C510.803,28.474 510.676,28.346 510.52,28.346L493.512,28.346C493.356,28.346 493.228,28.474 493.228,28.63L493.228,36.85C493.228,37.134 493.512,36.85 493.228,36.85L476.787,36.85C476.504,36.85 476.787,37.134 476.787,36.85L476.787,28.63C476.787,28.474 476.66,28.346 476.504,28.346L459.496,28.346C459.34,28.346 459.213,28.474 459.213,28.63L459.213,36.85C459.213,37.134 459.496,36.85 459.213,36.85L442.772,36.85C442.488,36.85 442.772,37.134 442.772,36.85L442.772,28.63C442.772,28.474 442.644,28.346 442.488,28.346L425.48,28.346C425.324,28.346 425.197,28.474 425.197,28.63L425.197,36.85C425.197,37.134 425.48,36.85 425.197,36.85L399.969,36.85C399.813,36.85 399.685,36.978 399.685,37.134L399.685,59.528C399.685,59.811 399.969,59.528 399.685,59.528L391.465,59.528C391.309,59.528 391.181,59.655 391.181,59.811L391.181,76.819C391.181,76.975 391.309,77.102 391.465,77.102L399.685,77.102C399.969,77.102 399.685,76.819 399.685,77.102L399.685,93.543C399.685,93.827 399.969,93.543 399.685,93.543L391.465,93.543C391.309,93.543 391.181,93.671 391.181,93.827L391.181,110.835C391.181,110.991 391.309,111.118 391.465,111.118L399.685,111.118C399.969,111.118 399.685,110.835 399.685,111.118L399.685,127.559C399.685,127.843 399.969,127.559 399.685,127.559L391.465,127.559C391.309,127.559 391.181,127.687 391.181,127.843L391.181,144.85C391.181,145.006 391.309,145.134 391.465,145.134L399.685,145.134C399.969,145.134 399.685,144.85 399.685,145.134L399.685,161.575C399.685,161.858 399.969,161.575 399.685,161.575L391.465,161.575C391.309,161.575 391.181,161.702 391.181,161.858L391.181,178.866C391.181,179.022 391.309,179.15 391.465,179.15L399.685,179.15C399.969,179.15 399.685,178.866 399.685,179.15L399.685,195.591C399.685,195.874 399.969,195.591 399.685,195.591L391.465,195.591C391.309,195.591 391.181,195.718 391.181,195.874L391.181,212.882C391.181,213.038 391.309,213.165 391.465,213.165L399.685,213.165C399.969,213.165 399.685,212.882 399.685,213.165L399.685,235.559C399.685,235.715 399.813,235.843 399.969,235.843" style="fill:none;fill-rule:nonzero;stroke:black;stroke-width:0.57px;"/>
    </g>
</svg>
